{
  "title": "The Flash S03E01 x264 HDTV-LOL",
  "uid": 15958674,
  "size": 252068109,
  "categoryP": "video",
  "categoryS": "tv_shows",
  "magnet": "?xt=urn:btih:135e09cfd9f38e18d849cde3202416ab20c7cbfa&amp;dn=The+Flash+S03E01+x264+HDTV-LOL&amp;tr=udp%3A%2F%2Ftracker.leechers-paradise.org%3A6969&amp;tr=udp%3A%2F%2Fzer0day.ch%3A1337&amp;tr=udp%3A%2F%2Fopen.demonii.com%3A1337&amp;tr=udp%3A%2F%2Ftracker.coppersurfer.tk%3A6969&amp;tr=udp%3A%2F%2Fexodus.desync.com%3A6969",
  "seeders": 112,
  "leechers": 30,
  "uploader": "TheRival",
  "files": 1,
  "time": 1475636844,
  "description": "Video\r\nID : 1\r\nFormat : AVC\r\nFormat/Info : Advanced Video Codec\r\nFormat profile :   \r\nFormat settings, CABAC : Yes\r\nFormat settings, ReFrames : 5 frames\r\nCodec ID : avc1\r\nCodec ID/Info : Advanced Video Coding\r\nDuration : 42 min 28 s\r\nBit rate : 658 kb/s\r\nWidth : 720 pixels\r\nHeight : 400 pixels\r\nDisplay aspect ratio : 16:9\r\nFrame rate mode : Variable\r\nFrame rate : 23.976 (24000/1001) FPS\r\nMinimum frame rate : 23.564 FPS\r\nMaximum frame rate : 24.390 FPS\r\nColor space : YUV\r\nChroma subsampling : 4:2:0\r\nBit depth : 8 bits\r\nScan type : Progressive\r\nBits/(Pixel*Frame) : 0.095\r\nStream size : 200 MiB (83%)\r\nWriting library : x264 core 148 r2721 72d53ab\r\nEncoding settings : cabac=1 / ref=5 / deblock=1:1:1 / analyse=0x3:0x133 / me=umh / subme=9 / psy=1 / psy_rd=1.00:0.00 / mixed_ref=1 / me_range=16 / chroma_me=1 / trellis=2 / 8x8dct=1 / cqm=0 / deadzone=21,11 / fast_pskip=1 / chroma_qp_offset=-2 / threads=12 / lookahead_threads=1 / sliced_threads=0 / nr=0 / decimate=1 / interlaced=0 / bluray_compat=0 / constrained_intra=0 / bframes=3 / b_pyramid=2 / b_adapt=2 / b_bias=0 / direct=3 / weightb=1 / open_gop=0 / weightp=2 / keyint=250 / keyint_min=23 / scenecut=40 / intra_refresh=0 / rc_lookahead=60 / rc=crf / mbtree=1 / crf=20.0 / qcomp=0.60 / qpmin=0 / qpmax=69 / qpstep=4 / ip_ratio=1.40 / aq=1:1.00\r\nLanguage : English\r\nColor range : Limited\r\nMatrix coefficients : BT.709\r\n\r\nAudio\r\nID : 2\r\nFormat : AAC\r\nFormat/Info : Advanced Audio Codec\r\nFormat profile : LC\r\nCodec ID : 40\r\nDuration : 42 min 27 s\r\nBit rate mode : Constant\r\nBit rate : 125 kb/s\r\nChannel(s) : 2 channels\r\nChannel positions : Front: L R\r\nSampling rate : 48.0 kHz\r\nFrame rate : 46.875 FPS (1024 spf)\r\nCompression mode : Lossy\r\nStream size : 38.1 MiB (16%)\r\nDefault : Yes\r\nAlternate group : 1",
  "parsed": {
    "xt": "urn:btih:135e09cfd9f38e18d849cde3202416ab20c7cbfa",
    "dn": "The Flash S03E01 x264 HDTV-LOL",
    "tr": [
      "udp://exodus.desync.com:6969",
      "udp://open.demonii.com:1337",
      "udp://tracker.coppersurfer.tk:6969",
      "udp://tracker.leechers-paradise.org:6969",
      "udp://zer0day.ch:1337"
    ],
    "infoHash": "135e09cfd9f38e18d849cde3202416ab20c7cbfa",
    "infoHashBuffer": {
      "type": "Buffer",
      "data": [
        19,
        94,
        9,
        207,
        217,
        243,
        142,
        24,
        216,
        73,
        205,
        227,
        32,
        36,
        22,
        171,
        32,
        199,
        203,
        250
      ]
    },
    "name": "The Flash S03E01 x264 HDTV-LOL",
    "announce": [
      "udp://exodus.desync.com:6969",
      "udp://open.demonii.com:1337",
      "udp://tracker.coppersurfer.tk:6969",
      "udp://tracker.leechers-paradise.org:6969",
      "udp://zer0day.ch:1337"
    ],
    "urlList": []
  },
  "previous": 86,
  "peers": 38,
  "last_updated": "2016-12-26T16:55:03.476Z"
}